<svg width="24" height="24" viewBox="0 0 24 24" fill="none" xmlns="http://www.w3.org/2000/svg">
  <path d="M3 3.75C3 3.33579 3.33579 3 3.75 3H9.25C9.66421 3 10 3.33579 10 3.75V9.25C10 9.66421 9.66421 10 9.25 10H3.75C3.33579 10 3 9.66421 3 9.25V3.75Z" fill="#637381"/>
  <path d="M14 3.75C14 3.33579 14.3358 3 14.75 3H20.25C20.6642 3 21 3.33579 21 3.75V9.25C21 9.66421 20.6642 10 20.25 10H14.75C14.3358 10 14 9.66421 14 9.25V3.75Z" fill="#637381"/>
  <path d="M3 14.75C3 14.3358 3.33579 14 3.75 14H9.25C9.66421 14 10 14.3358 10 14.75V20.25C10 20.6642 9.66421 21 9.25 21H3.75C3.33579 21 3 20.6642 3 20.25V14.75Z" fill="#637381"/>
  <g opacity="0.4">
    <path d="M14 14.75C14 14.3358 14.3358 14 14.75 14H20.25C20.6642 14 21 14.3358 21 14.75V20.25C21 20.6642 20.6642 21 20.25 21H14.75C14.3358 21 14 20.6642 14 20.25V14.75Z" fill="#637381"/>
  </g>
</svg>
